<svg id="ehprfvy0utm1" xmlns="http://www.w3.org/2000/svg" xmlns:xlink="http://www.w3.org/1999/xlink" viewBox="0 0 1024 1024" shape-rendering="geometricPrecision" text-rendering="geometricPrecision"><style><![CDATA[#ehprfvy0utm13_tr {animation: ehprfvy0utm13_tr__tr 3000ms linear 1 normal forwards}@keyframes ehprfvy0utm13_tr__tr { 0% {transform: translate(511.500000px,510px) rotate(0deg)} 100% {transform: translate(511.500000px,510px) rotate(720deg)} }#ehprfvy0utm14_tr {animation: ehprfvy0utm14_tr__tr 3000ms linear 1 normal forwards}@keyframes ehprfvy0utm14_tr__tr { 0% {transform: translate(511.500000px,510px) rotate(0deg)} 100% {transform: translate(511.500000px,510px) rotate(720deg)} }]]></style><circle id="ehprfvy0utm2" r="512" transform="matrix(1 0 0 1 512 512)" fill="rgb(128,130,133)" stroke="none" stroke-width="1"/><circle id="ehprfvy0utm3" r="356.500000" transform="matrix(1 0 0 1 512 512)" fill="rgb(88,89,91)" stroke="none" stroke-width="1"/><g id="ehprfvy0utm4"><circle id="ehprfvy0utm5" r="66" transform="matrix(1 0 0 1 512 78)" fill="rgb(188,190,192)" stroke="none" stroke-width="1"/><circle id="ehprfvy0utm6" r="66" transform="matrix(1 0 0 1 512 946)" fill="rgb(188,190,192)" stroke="none" stroke-width="1"/><circle id="ehprfvy0utm7" r="66" transform="matrix(1 0 0 1 76 510)" fill="rgb(188,190,192)" stroke="none" stroke-width="1"/><circle id="ehprfvy0utm8" r="66" transform="matrix(1 0 0 1 947 510)" fill="rgb(188,190,192)" stroke="none" stroke-width="1"/><circle id="ehprfvy0utm9" r="66" transform="matrix(1 0 0 1 830 210)" fill="rgb(188,190,192)" stroke="none" stroke-width="1"/><circle id="ehprfvy0utm10" r="66" transform="matrix(1 0 0 1 199 210)" fill="rgb(188,190,192)" stroke="none" stroke-width="1"/><circle id="ehprfvy0utm11" r="66" transform="matrix(1 0 0 1 827.50000000000000 810)" fill="rgb(188,190,192)" stroke="none" stroke-width="1"/><circle id="ehprfvy0utm12" r="66" transform="matrix(1 0 0 1 196.50000000000000 810)" fill="rgb(188,190,192)" stroke="none" stroke-width="1"/></g><g id="ehprfvy0utm13_tr" transform="translate(511.500000,510) rotate(0)"><line id="ehprfvy0utm13" x1="243" y1="510" x2="780" y2="510" transform="translate(-511.500000,-510)" fill="none" stroke="rgb(188,190,192)" stroke-width="150" stroke-linecap="round" stroke-miterlimit="10"/></g><g id="ehprfvy0utm14_tr" transform="translate(511.500000,510) rotate(0)"><line id="ehprfvy0utm14" x1="511.500000" y1="778.500000" x2="511.500000" y2="241.500000" transform="translate(-511.500000,-510)" fill="none" stroke="rgb(188,190,192)" stroke-width="150" stroke-linecap="round" stroke-miterlimit="10"/></g></svg>